<?xml version="1.0" encoding="UTF-8" standalone="no"?>
<!-- Generator: Adobe Illustrator 19.1.0, SVG Export Plug-In . SVG Version: 6.00 Build 0)  -->

<svg
   xmlns:dc="http://purl.org/dc/elements/1.1/"
   xmlns:cc="http://creativecommons.org/ns#"
   xmlns:rdf="http://www.w3.org/1999/02/22-rdf-syntax-ns#"
   xmlns:svg="http://www.w3.org/2000/svg"
   xmlns="http://www.w3.org/2000/svg"
   xmlns:sodipodi="http://sodipodi.sourceforge.net/DTD/sodipodi-0.dtd"
   xmlns:inkscape="http://www.inkscape.org/namespaces/inkscape"
   version="1.1"
   id="Layer_1"
   x="0px"
   y="0px"
   viewBox="-106 1375.4 505.9 331.1"
   style="enable-background:new -106 1375.4 505.9 331.1;"
   xml:space="preserve"
   inkscape:version="0.91 r13725"
   sodipodi:docname="catalogIcon-route53.svg"><metadata
     id="metadata133"><rdf:RDF><cc:Work
         rdf:about=""><dc:format>image/svg+xml</dc:format><dc:type
           rdf:resource="http://purl.org/dc/dcmitype/StillImage" /></cc:Work></rdf:RDF></metadata><defs
     id="defs131" /><sodipodi:namedview
     pagecolor="#ffffff"
     bordercolor="#666666"
     borderopacity="1"
     objecttolerance="10"
     gridtolerance="10"
     guidetolerance="10"
     inkscape:pageopacity="0"
     inkscape:pageshadow="2"
     inkscape:window-width="1366"
     inkscape:window-height="713"
     id="namedview129"
     showgrid="false"
     inkscape:zoom="0.68590631"
     inkscape:cx="252.95"
     inkscape:cy="165.55"
     inkscape:window-x="0"
     inkscape:window-y="27"
     inkscape:window-maximized="1"
     inkscape:current-layer="Layer_1" /><style
     type="text/css"
     id="style3">
	.st0{fill:#00C7FC;}
	.st1{fill:#3D3D3D;}
	.st2{fill:#0D5E8C;}
	.st3{fill:#0071BC;}
	.st4{fill:#E6E6E6;}
	.st5{fill:#F7C94A;}
	.st6{fill:#313131;}
	.st7{fill:#414042;}
	.st8{fill-rule:evenodd;clip-rule:evenodd;fill:url(#SVGID_1_);}
	.st9{fill:#F68B1F;}
	.st10{fill-rule:evenodd;clip-rule:evenodd;fill:url(#SVGID_2_);}
	.st11{fill-rule:evenodd;clip-rule:evenodd;fill:#F68B1F;}
	.st12{fill:url(#SVGID_3_);}
	.st13{fill:url(#SVGID_4_);}
	.st14{fill:url(#SVGID_5_);}
	.st15{fill:url(#SVGID_6_);}
	.st16{fill-rule:evenodd;clip-rule:evenodd;fill:url(#SVGID_7_);}
	.st17{fill:#FFFFFF;}
	.st18{fill:none;stroke:#FFFFFF;stroke-width:10;stroke-miterlimit:10;}
	.st19{fill:none;stroke:#000000;stroke-width:4;stroke-miterlimit:10;}
	.st20{fill:none;stroke:#000000;stroke-width:4;stroke-linejoin:bevel;stroke-miterlimit:10;}
	.st21{fill:#495755;}
	.st22{fill:#FF9900;}
	.st23{stroke:#000000;}
</style><g
     id="g5"><g
       id="g7"><path
         class="st1"
         d="M35.3,1465.1l7.2-7.8c3.4-3.7,7.6-4.6,11.1-1.3c2.8,2.6,2.8,6.2,1.6,8.6c1-0.1,2,0.1,3,0.3    c2.3,0.7,4.6,1.8,6.1,0.1c0.4-0.4,0.6-0.9,0.6-0.9l3,3.5c0,0-0.7,1.2-1.5,2.1c-2.1,2.3-4.2,2.7-8.4,1.3c-1.9-0.7-5-2.1-5.9-1    l-1,1.1l7.5,7l-4.3,4.7L35.3,1465.1z M43.1,1463.5l4.7,4.3l1.6-1.7c1.2-1.4,2.3-3.3,0.3-5.2c-1.7-1.5-3.2-1-4.4,0.3L43.1,1463.5z"
         id="path9" /><path
         class="st1"
         d="M58.5,1442.5l5.2-3.9l22.7,15.3l-5.2,3.9l-4.3-2.9l-6.9,5.3l1.7,4.9l-4.5,3.4L58.5,1442.5z M68.3,1455.4    l4.4-3.4l-4.7-3.3c-1.6-1.1-3.4-3-3.4-3l-0.1,0.1c0,0,1.3,2.3,1.9,4.1L68.3,1455.4z"
         id="path11" /><path
         class="st1"
         d="M74.9,1430.7l6.1-3.1l11.9,8.4c1,0.7,2.6,2.1,3.8,3.2l0.1-0.1c-0.7-1.3-1.8-3-2.5-4.4l-5.6-11.1l4.7-2.4    l11.8,23.2l-6,3l-12.1-8.2c-1.1-0.7-2.5-1.9-3.6-2.9l-0.1,0.1c0.8,1.2,1.7,2.7,2.4,4l5.6,11.1l-4.7,2.4L74.9,1430.7z"
         id="path13" /><path
         class="st1"
         d="M102.8,1431.3c-2.7-9,0.7-14,7.6-16.1c7.3-2.1,11.3,1,12.1,6.6l-5.6,2.2c-0.5-4.1-2.6-5.3-5.3-4.4    c-2.7,0.8-4.3,3.4-2.4,9.8c2,6.8,4.9,7.8,7.6,7c2.5-0.7,4.1-2.9,2.7-6.1l5.5-1c1.9,4.9-0.7,9.7-7.3,11.7    C111,1443,105.5,1440.3,102.8,1431.3z"
         id="path15" /><path
         class="st1"
         d="M126.1,1411.7l6.4-0.7l1,9.7l7.8-0.8l-1-9.7l6.4-0.7l2.7,25.8l-6.4,0.7l-1.1-10.9l-7.8,0.8l1.1,10.9l-6.4,0.7    L126.1,1411.7z"
         id="path17" /><path
         class="st1"
         d="M153.7,1409.6l17.1,1.1l-0.3,4.8l-10.7-0.7l-0.4,5.6l9,0.6l-0.3,4.8l-9-0.6l-0.4,6.1l11.1,0.7l-0.3,4.8    l-17.5-1.3L153.7,1409.6z"
         id="path19" /><path
         class="st1"
         d="M176.8,1411.6l10.4,2.4c4.9,1.1,7.7,4.3,6.6,8.9c-0.9,3.8-4,5.5-6.7,5.7c0.6,0.8,1,1.8,1.2,2.8    c0.6,2.4,0.7,4.9,2.9,5.4c0.6,0.1,1.1,0,1.1,0l-1.5,4.3c0,0-1.4,0-2.6-0.2c-3-0.7-4.4-2.3-5.3-6.7c-0.3-2-0.6-5.4-2-5.7l-1.4-0.3    l-2.3,10l-6.2-1.5L176.8,1411.6z M182,1417.5l-1.4,6.2l2.2,0.5c1.8,0.4,4,0.3,4.6-2.4c0.5-2.2-0.7-3.3-2.5-3.7L182,1417.5z"
         id="path21" /><path
         class="st1"
         d="M208.8,1420.6l8.9,4.4c5.8,2.8,8.6,8.4,4.6,16.6c-3.9,8-10,9.7-16,6.7l-8.9-4.4L208.8,1420.6z M207.8,1443.8    c2.6,1.2,5.8,0.9,8.7-5.1c2.9-6,1.2-8.5-1.4-9.8l-2.6-1.3l-7.3,14.9L207.8,1443.8z"
         id="path23" /><path
         class="st1"
         d="M233.2,1433.3l5.5,4.1l-2.2,14.4c-0.2,1.2-0.8,3.3-1.2,4.9l0.1,0.1c0.8-1.2,1.9-3,2.8-4.2l7.4-10l4.2,3.1    l-15.5,20.8l-5.4-4l2-14.5c0.2-1.3,0.6-3.1,1-4.5l-0.1-0.1c-0.8,1.2-1.7,2.7-2.5,3.9l-7.4,10l-4.2-3.1L233.2,1433.3z"
         id="path25" /><path
         class="st1"
         d="M245.4,1465.6c-1.8,1.1-3,3.3-0.2,6.3c1.8,2,3.3,1.9,4.3,0.9c1.6-1.5,0.5-3.4-0.6-5.9    c-1.7-3.7-3.5-8.3,0.4-12.1c3.5-3.3,8.2-2.6,12.5,2.1c5.2,5.7,3.4,10.5-0.1,12.6l-4.4-3.9c2.4-1.8,2.9-3.7,0.8-5.9    c-1.4-1.5-2.7-1.8-3.9-0.7c-1.6,1.5-0.6,3.4,0.5,5.9c1.7,3.7,3.8,8.2-0.1,11.9c-3.4,3.2-8.2,3-12.8-1.9c-4.3-4.6-5.2-9.8-0.6-12.9    L245.4,1465.6z"
         id="path27" /></g></g><g
     id="g29"><g
       id="g31"><g
         id="g33"><path
           class="st2"
           d="M191,1501.1l-2.2-13.7c-0.7-4.3-2.2-8-3.6-8s-2.3,3.5-2.3,7.8v3.5c0,4.4-3.9,8.6-8.3,8.6h-3.5     c-0.3,0-0.2-0.6-0.2-0.6v9.7c0,0,0,0.9,0.2,0.9h13.2C188.8,1509.4,191.7,1505.4,191,1501.1z"
           id="path35" /></g></g><g
       id="g37"><path
         class="st2"
         d="M113,1501.1l2.2-13.7c0.7-4.3,2.7-8,4-8s2.7,3.5,2.7,7.8v3.5c0,4.4,3.1,8.6,7.4,8.6h3.5c0.3,0,1-0.6,1-0.6    v9.7c0,0-0.8,0.9-1,0.9h-13.2C115.3,1509.4,112.3,1505.4,113,1501.1z"
         id="path39" /></g><path
       class="st3"
       d="M171.6,1542.4c0,2.8-2.2,5-5,5h-28c-2.8,0-5-2.2-5-5v-48c0-2.8,2.2-5,5-5h28c2.8,0,5,2.2,5,5V1542.4z"
       id="path41" /></g><path
     class="st4"
     d="M358.5,1560.4h-8.4h-23.5c-1.3-95.1-79.1-172-174.5-172c-0.1,0-0.2,0-0.3,0c-0.1,0-0.2,0-0.3,0  c-95.4,0-173.1,76.9-174.5,172h-23.5h-8.4h-29.4v10h23.4l0,0H43.2l0,0h10.3h11h174.8h11h17.8h95h24.8v-10H358.5z M239.3,1560.4H64.5  H47.2c1.3-56.6,47.7-102.3,104.7-102.5c56.9,0.2,103.3,45.8,104.7,102.5H239.3z M281,1560.4h-13.9c-1.3-62.3-52.4-112.5-115-112.5  c-0.1,0-0.2,0-0.3,0c-0.1,0-0.2,0-0.3,0c-62.6,0-113.6,50.2-115,112.5H22.8h-35.6c0-3.2,0.2-6.3,0.4-9.5c0.2,0,0.4,0,0.6,0  c6.2-85,77.2-152.3,163.7-152.5c86.5,0.2,157.6,67.5,163.7,152.5c0.2,0,0.4,0,0.6,0c0.2,3.1,0.4,6.3,0.4,9.5H281z"
     id="path43" /><path
     style="fill:#231f20;fill-opacity:1;fill-rule:nonzero;stroke:none"
     d="m 71.8531,1627.9849 c -5.894478,0 -7.035431,-4.2759 -7.035431,-11.1193 0,-8.3653 3.231458,-11.5974 7.319636,-11.5974 4.562145,0 6.937675,2.9482 6.937675,9.8853 0,8.269 -2.186605,12.8314 -7.22188,12.8314 z m -3.803973,18.5351 c 0.570055,0.094 1.141769,0.1899 1.806284,0.1899 8.365299,0.5698 10.836119,1.8055 10.836119,6.085 0,3.3244 -2.94642,7.3157 -9.695166,7.3157 -6.462901,0 -7.984165,-2.3748 -7.984165,-5.4156 0,-3.0427 2.281894,-6.1796 5.036928,-8.175 z m 9.12592,-46.1938 c -1.616544,-0.4757 -3.517302,-0.7599 -4.752715,-0.7599 -9.314029,0 -15.778569,5.2267 -15.778569,17.8691 0,6.0824 1.42762,11.3115 5.798373,14.1621 -2.755847,2.2804 -5.89366,6.1787 -5.988119,8.6489 -0.09528,2.4698 2.090503,4.1819 5.703092,5.2289 -3.992904,2.6596 -7.12825,6.4622 -7.12825,11.0233 0,4.9449 2.471645,10.837 15.302154,10.837 12.640767,0 18.154107,-7.415 18.154107,-15.5886 0,-7.5074 -5.70226,-10.2652 -11.78567,-11.1184 -7.128245,-0.9526 -11.977063,-1.2366 -11.977063,-2.8524 0,-1.3318 1.236235,-2.9476 2.47082,-4.2782 1.237051,0.2849 2.662204,0.3799 4.279575,0.3799 11.025038,0 15.397438,-6.5591 15.397438,-16.6324 0,-4.7533 -1.4268,-8.3653 -3.70869,-10.7409 1.33152,0.2868 2.47163,0.475 3.5173,0.475 1.61655,0 2.66057,-0.9516 2.66057,-3.0414 0,-1.7117 -0.37867,-2.9467 -0.759,-3.612 l -11.405353,0 z m -56.3377,-8.7677 c -3.367139,-2.3839 -8.027692,-1.5862 -10.41046,1.7798 -2.9249764,4.136 -6.1634894,7.2016 -9.84836535,9.3187 -0.339734,0.1951 -0.684725,0.3821 -1.032516,0.5622 -0.320518,0.1661 -0.64587405,0.325 -0.97321005,0.4764 -3.440579,1.5948 -7.272732,2.4319 -11.7025516,2.5647 -4.430551,-0.1328 -8.264591,-0.9705 -11.70648,-2.5652 -4.532898,-2.1008 -8.410811,-5.4881 -11.856971,-10.3568 -2.382434,-3.366 -7.043291,-4.1637 -10.408846,-1.7798 -3.366845,2.3812 -4.16516,7.0418 -1.782088,10.4087 4.923032,6.9571 10.901722,12.0983 17.769497,15.2798 1.348924,0.6256 2.725131,1.1752 4.135655,1.65 -5.833362,4.2125 -12.140597,10.1165 -15.161842,18.2107 -3.13646,8.4 -3.09699,17.4943 0.109095,25.6093 3.076107,7.7851 8.769905,14.1168 16.033688,17.8302 8.092506,4.1376 18.3938806,4.1465 27.5549646,0.02 9.6140934,-4.3272 15.8847084,-12.2503 16.7761064,-21.1983 0.935668,-9.418 -3.579901,-17.8041 -11.5062284,-21.3639 -8.209648,-3.6871 -17.4708656,-1.0553 -23.5922976,6.7026 -2.555664,3.2373 -2.00187,7.9341 1.234999,10.4888 3.238188,2.556 7.9343836,2.0015 10.4890636,-1.2356 1.81903,-2.3048 3.915861,-3.1548 5.75188605,-2.3301 1.56488095,0.7029 3.11111395,2.718 2.75946795,6.2616 -0.35042,3.5081 -3.43204695,6.9804 -8.043145,9.0567 -4.989763,2.2442 -10.5950236,2.359 -14.6275996,0.2982 -4.024936,-2.0584 -7.199961,-5.6169 -8.939635,-10.0193 -1.306623,-3.3047 -2.368382,-8.575 -0.0071,-14.8966 1.770479,-4.7418 6.233397,-9.2159 14.045882,-14.0767 3.316144,-2.0648 6.8726255,-3.989 10.3109825,-5.8498 3.96530505,-2.1462 7.72353,-4.1804 11.023976,-6.3591 5.8734525,-3.2122 11.0394105,-7.9385 15.3855225,-14.0789 2.383094,-3.3669 1.585084,-8.0276 -1.781164,-10.4089 z m 94.903163,50.4001 c -0.85344,0.9484 -3.23143,1.5209 -5.13219,1.5209 -3.70624,0 -6.0826,-0.3816 -6.0826,-8.5568 0,-8.3636 3.22981,-9.6925 7.03462,-9.6925 1.32904,0 3.23062,0.1891 4.46685,0.8558 0,6.8425 -0.28668,15.8726 -0.28668,15.8726 z m -1.70935,-42.3923 c -8.83926,0 -15.20934,1.2354 -16.6345,2.2816 -0.66535,0.4763 -0.85508,1.4252 -0.85508,2.4715 0,0.6652 0.0952,3.3262 1.04483,4.9426 2.94805,-1.3322 9.12427,-2.1876 13.40222,-2.1876 2.94559,0 5.03856,1.142 5.03856,5.6088 l 0,7.9826 c -1.90158,-0.9477 -4.84799,-1.2346 -7.22435,-1.2346 -6.08259,0 -12.35574,2.3758 -12.35574,15.5888 0,14.4466 6.65265,15.0183 13.59032,14.9213 6.1787,0 10.64556,-1.5221 13.2133,-3.136 0,0 0.57088,-13.497 0.57088,-30.1319 l 0,-5.5124 c 0,-8.5533 -3.61176,-11.5947 -9.79044,-11.5947 z m -131.15735,-22.0672 c 0.956214,-0.957 2.22842,-1.4844 3.580226,-1.4844 1.353448,0 2.625655,0.5274 3.5815436,1.4835 0.956782,0.9577 1.483963,2.2285 1.483963,3.5814 0,1.3537 -0.527181,2.6253 -1.483314,3.5806 -0.9565376,0.9577 -2.2287446,1.4843 -3.5821926,1.4843 -1.351806,0 -2.624012,-0.5266 -3.580226,-1.4828 -0.956448,-0.9568 -1.483628,-2.2284 -1.483628,-3.5821 0,-1.3529 0.52718,-2.6237 1.483628,-3.5805 z m 3.580226,20.8171 c 4.6041166,0 8.9335576,-1.7932 12.1887406,-5.0494 3.254533,-3.2542 5.047518,-7.5815 5.047518,-12.1872 0,-4.604 -1.792985,-8.932 -5.048502,-12.1882 -3.254199,-3.2545 -7.58364,-5.0476 -12.1877566,-5.0476 -4.602799,0 -8.931581,1.7931 -12.187098,5.0493 -3.255508,3.2545 -5.048167,7.5825 -5.048167,12.1865 0,4.6041 1.792659,8.933 5.048501,12.1872 3.254859,3.2562 7.583965,5.0494 12.186764,5.0494 z m 252.946504,40.1244 c -3.42119,0 -5.32195,2.5666 -5.32195,5.5128 0,3.3263 1.3307,5.4195 5.32195,5.4195 3.32508,0 5.32524,-2.4707 5.32524,-5.4195 0,-3.3248 -1.42679,-5.5128 -5.32524,-5.5128 z m 31.91446,-38.8743 c -5.13057,0 -11.97542,1.4252 -15.68493,3.1368 l 0,45.8123 c 7.89134,0 7.70241,0 7.70241,-1.6132 l 0,-38.7814 c 2.08969,-1.3294 5.03446,-1.8058 7.12743,-1.8058 5.03692,0 5.60698,2.8501 5.60698,10.3584 l 0,31.842 c 8.07779,0 7.98417,0 7.98417,-1.6132 l 0,-29.847 c 0,-13.117 -1.23788,-17.4889 -12.73606,-17.4889 z m -52.13689,-20.6257 c -3.04088,0 -4.37239,2.2819 -4.37239,5.7031 -0.0952,4.467 1.42761,5.8919 3.89678,5.9882 2.85032,0 4.27793,-2.2811 4.37239,-6.1779 0,-3.9921 -0.95037,-5.5134 -3.89678,-5.5134 z m -55.74703,38.1146 c 0,-13.117 -1.23623,-17.4889 -12.73521,-17.4889 -5.13303,0 -11.97707,1.4252 -15.68331,3.1368 l 0,45.8123 c 7.89052,0 7.69915,0 7.69915,-1.6132 l 0,-38.7814 c 2.08967,-1.3294 5.03691,-1.8058 7.12906,-1.8058 5.03774,0 5.60781,2.8501 5.60781,10.3584 l 0,31.842 c 8.07862,0 7.9825,0 7.9825,-1.6132 l 0,-29.847 z m 151.48713,4.8463 c -3.3251,0.9514 -9.21958,1.1402 -12.92497,1.0462 0.56841,-13.212 4.08654,-16.6327 7.98334,-16.6327 4.08653,0 5.32194,2.8501 5.41559,9.6942 0,1.8068 -0.0937,4.1822 -0.47396,5.8923 z m 7.98498,-6.748 c 0,-10.1689 -4.08736,-15.5872 -12.07398,-15.5872 -8.45812,0 -16.82178,2.9469 -16.82178,27.6594 0,19.389 6.36926,22.7156 15.20933,22.7156 7.12825,0 13.11309,-2.2825 13.11309,-3.6109 0,-2.0908 -0.18648,-5.4182 -0.66289,-6.8437 -3.23227,1.8045 -7.03543,2.947 -11.59676,2.947 -5.13302,0 -7.79276,-1.712 -8.07696,-13.2119 4.55885,0 13.30528,-0.1909 19.86428,-1.5219 0.76064,-3.4214 1.04567,-8.2687 1.04567,-12.5464 z m -128.03159,26.4249 c -1.52209,1.0448 -3.51895,1.4246 -5.61027,1.4246 -4.46604,0 -7.12496,-2.0908 -7.12496,-17.3925 0,-15.5895 4.18018,-19.2955 8.36201,-19.2955 1.99276,0 3.13617,0.2842 4.37322,1.2353 l 0,34.0281 z m 0,-59.4048 0,19.2944 c -1.61737,-1.1418 -3.80234,-1.9017 -6.7504,-1.9017 -8.17226,0 -14.63844,8.0793 -14.63844,26.899 0,20.6259 6.46618,23.476 15.49272,23.476 5.89612,0 10.36216,-0.9503 13.59279,-2.8501 l 0,-68.4364 c -6.27399,0 -7.69667,0 -7.69667,3.5188 z m 20.03022,22.3351 0,44.0067 c 7.7944,0 7.88887,0 7.88887,-1.6132 l 0,-45.9107 c -6.27315,0 -7.88887,0 -7.88887,3.5172 z m 132.87794,38.8745 c -3.41873,0 -3.41873,-3.4207 -3.41873,-7.5086 l 0,-28.229 8.17309,0 c 1.52291,0 1.52291,-0.666 1.52291,-6.6541 l -9.696,0 0,-17.1075 c -6.27315,0 -7.69666,0 -7.69666,2.6621 l 0,14.4454 -4.85046,0 c -1.61573,0 -1.70936,0.7611 -1.70936,6.6541 l 6.55982,0 0,27.3744 c 0,8.5542 0,15.0183 9.02653,15.0183 3.70706,0 8.17473,-0.7624 8.17473,-3.0441 0,-1.9001 -0.28503,-3.9912 -0.57252,-5.0356 -1.9944,0.8551 -2.85113,1.4246 -5.51335,1.4246"
     id="gandi"
     inkscape:connector-curvature="0" /></svg>